<?xml version="1.0" encoding="utf-8"?>
<!-- Generator: Adobe Illustrator 25.1.0, SVG Export Plug-In . SVG Version: 6.00 Build 0)  -->
<svg version="1.1" id="Layer_1" xmlns="http://www.w3.org/2000/svg" xmlns:xlink="http://www.w3.org/1999/xlink" x="0px" y="0px"
	 viewBox="0 0 359.7606 330" enable-background="new 0 0 359.7606 330" xml:space="preserve">
<g>
	<circle fill="#AFB0CC" cx="194.7606" cy="165" r="165"/>
	<path fill="#FFFFFF" d="M130.7123,288.7371l0.6744,6.2878l3.1287,2.0831l37.5812-39.1449
		c-1.5222-0.116-2.8503-0.2893-3.7128-0.5945c-2.2266-0.7831-4.1107-1.3794-5.8258-1.8896L130.7123,288.7371z"/>
	<path fill="#FFFFFF" d="M264.9219,66.9244l-10.4108-11.319l-46.0883,46.214c0.0653,1.7114-0.0574,3.4039-0.5225,4.7583
		c-1.5234,4.458-10.2881,19.3066-15.376,24.0674c-0.4962,1.4264-1.8756,6.3293-0.4364,11.9574L264.9219,66.9244z"/>
	<path fill="#FFFFFF" d="M203.0908,97.398c-0.3223-0.3125-0.6201-0.4492-1.2451-0.2148c-0.6348,0.2295-2.876,1.333-5.249,2.5049
		c-1.1652,0.5743-2.2174,1.084-3.2941,1.6083c1.3354,0.8527,3.0969,2.132,3.8702,3.4161c1.2445-0.3607,4.3073-2.1838,7.1844-4.1272
		C204.1388,99.2315,203.7152,98.0132,203.0908,97.398z"/>
	<path fill="#FFFFFF" d="M293.2434,73.7414l-28.8776-13.3325l4.7748,5.1923c0.7129,0.7764,0.6982,1.9775-0.0342,2.7393
		L193.7042,146.69c0.9534,1.8439,2.1826,3.6945,4.0106,5.4688c3.9734,3.8538,8.9215,7.0959,13.8074,9.7388L293.2434,73.7414z"/>
	<path fill="#FFFFFF" d="M77.9303,223.3441c2.5958-1.0974,4.9786-2.1021,6.8695-2.8943c1.1249-0.4712,2.2827-0.9961,3.4558-1.5503
		l50.8649-51.0034c2.8748-6.7822,7.1655-14.2224,13.7653-20.5322c0.636-0.6085,1.1316-1.272,1.7285-1.8982L77.9303,223.3441z"/>
	<path fill="#FFFFFF" d="M200.4883,93.4234c0.9802-0.354,1.9275-0.415,2.8168-0.2466l42.7246-42.9394l-51.9623-30.8521
		l-47.7722,48.9441c0.2185,0.7715,0.3156,1.6608,0.1501,2.7991c-0.3613,2.4463-1.709,5.7715-4.4141,7.7783l-1.1035,0.835
		c-2.843,2.1814-6.8274,5.1825-11.7096,6.0791L67.5195,149.024l8.501,72.8442l88.2416-89.6161
		c6.0773-11.0345,7.8271-20.9357,7.8473-21.0797c0.6396-4.0625,4.9023-8.3203,8.9453-8.9307
		c1.8848-0.2832,9.3262-3.9502,13.7695-6.1426C197.9053,94.5855,199.6826,93.7115,200.4883,93.4234z"/>
	<path fill="#FFFFFF" d="M136.5479,298.4509l15.8691,10.4218l49.1425-52.865c-9.6698,1.1981-19.5306,2.1283-26.261,2.0807
		L136.5479,298.4509z"/>
	<path fill="#FFFFFF" d="M123.6816,290.2984l34.4812-36.012c-3.9838-0.9277-5.8282-0.8948-6.2781-0.697
		c-2.0703,0.9521-10.6494,6.1719-12.8711,8.1738c-0.7471,0.6689-5.1025,3.3301-18.3789,11.4014
		c-3.2043,1.9464-6.8555,4.1644-10.7855,6.5594L123.6816,290.2984z"/>
	<path fill="#FFFFFF" d="M311.7334,89.8345l-11.1975-12.3041l-80.6818,88.3636c5.2344,2.2296,9.5947,3.6285,11.2836,4.0332
		c0.708,0.166,1.9922,0.5078,3.6963,0.9619c0.3088,0.0824,0.5731,0.1471,0.8789,0.2277L311.7334,89.8345z"/>
	<path fill="#FFFFFF" d="M95.2563,215.2825c17.6361-9.7632,36.9196-25.0336,38.103-28.0652
		c0.1221-0.4541,0.2734-1.167,0.4688-2.0654c0.5634-2.5757,1.4917-6.7847,3.1659-11.72L95.2563,215.2825z"/>
	<path fill="#FFFFFF" d="M63.4375,148.5406c-0.0684-0.5957,0.1367-1.1963,0.5566-1.626l60.6793-62.1619l0.3412-2.7161
		c5.5176,0.6885,10.1025-2.8711,13.4814-5.4688l1.1523-0.874c1.8652-1.3812,2.5989-3.7549,2.7814-5.2277
		c-2.4536,2.2504-3.1134,2.5433-3.3087,2.6056c-0.0439,0.0146-5.5127,1.0449-7.8857,1.0449c-0.4492,0-0.7861-0.0342-0.957-0.1221
		c-0.9094-0.448-0.9631-1.4893-0.2448-3.8861c-0.2924-0.0751-0.5261-0.097-0.8685-0.1959
		c-1.6699-0.4834-3.9697-1.1621-5.8057-0.3516c-2.5195,1.0938-5.8643,7.4658-6.3818,9.0332
		c-0.5566,1.6602-3.5107,5.3857-4.7559,6.9092c-0.1221,0.1562-0.2734,0.2881-0.4395,0.4004
		c-3.2715,2.1777-6.0938,10.0537-6.3916,12.1533c-0.2637,1.8408-2.7197,5.2686-14.1064,16.6602
		c-2.4951,2.4902-17.4121,7.6416-44.0771,16.2793c-5.0439,1.6357-9.1211,2.9541-11.1719,3.6768
		c-7.5854,2.6788-28.4375,10.7684-32.1783,12.2235c-0.8545,5.8545-2.1344,20.3772-0.1532,47.8271
		c12.6428-5.5688,54.4238-24.0759,61.781-28.6383L63.4375,148.5406z"/>
	<path fill="#FFFFFF" d="M320.553,106.809l-66.134,68.8776c11.6675,2.547,18.8727,3.3405,21.2598,2.2778l55.9326-60.918
		L320.553,106.809z"/>
	<path fill="#FFFFFF" d="M217.5262,164.887l80.9961-88.7085l-2.9895-1.38l-81.7981,88.2397
		C215.0201,163.6889,216.2915,164.3249,217.5262,164.887z"/>
	<path fill="#FFFFFF" d="M248.1549,51.499l-42.63,42.8436c0.1135,0.0952,0.26,0.097,0.3687,0.2039
		c1.0577,1.0406,1.6888,2.6135,2.1057,4.295l44.5886-44.7101L248.1549,51.499z"/>
	<path fill="#FFFFFF" d="M251.676,175.0823l67.066-69.848l-9.0222-7.3914l-69.5972,74.4153
		C244.3164,173.3355,248.1995,174.2889,251.676,175.0823z"/>
	<path fill="#FFFFFF" d="M118.5547,269.7466c9.1113-5.5371,16.9824-10.3174,17.8125-10.9863
		c2.7197-2.4463,11.7139-7.8271,13.8477-8.8037c2.6172-1.2061,9.1846,0.0049,19.4971,3.6426
		c7.8076,2.7393,57.29-5.0732,60.7178-5.9814c0.7715-0.2246,2.1338-2.1582,2.9443-3.3154c0.4688-0.6592,0.918-1.2939,1.3379-1.8066
		c0.249-0.5432-0.1196-2.724-0.7849-4.8376c-3.4747,0.1746-6.7804,0.4437-7.6379,0.8972l-2.0264-3.4521
		c1.8408-1.0889,6.4697-1.4014,16.1523-1.6895c2.6758-0.083,6.0059-0.1807,6.6602-0.3418c0.4248-0.1172,1.4795-0.9766,3.7158-5.3613
		l0.293-0.5664c0.1807-0.5902-0.1941-3.2208-0.8136-5.4657c-6.366-0.2032-14.8157-0.437-16.1053-0.1788l-0.8203-3.916
		c1.7822-0.3662,9.2139-0.1562,19.5215,0.1758c4.3018,0.1367,7.9297,0.2393,8.999,0.2246c0.1562-0.0049,0.6104-0.2148,1.2061-0.957
		c1.4014-1.748,2.207-4.624,1.9629-5.9277c-0.473-2.5714-0.3571-8.5059-0.2838-11.0083c-6.4551,0.7642-11.9586,1.1646-16.391,1.1646
		c-5.2002,0-8.9941-0.5273-11.3477-1.5771l1.6309-3.6523c2.3389,1.04,9.4141,2.373,30.415-0.5078l0.6543-0.0879
		c2.6562-0.3516,6.1279-1.3965,9.3799-6.377c1.8909-2.8986,1.2463-6.9885,0.5682-9.5093l-1.2714,1.3843
		c-0.1367,0.1514-0.2979,0.2783-0.4736,0.376c-4.3311,2.5244-17.1191,0.6299-44.1113-6.5479
		c-1.6553-0.4443-2.9053-0.7764-3.5938-0.9424c-4.4629-1.0645-23.5205-7.3779-35.2783-18.7842
		c-11.8408-11.4893-6.2061-25.7031-5.9619-26.2988c0.1172-0.293,0.3076-0.5518,0.5469-0.7568
		c4.4141-3.8037,13.2178-18.6426,14.5996-22.6953c0.1923-0.5585,0.2924-1.2103,0.3516-1.8768
		c-3.7274,2.4567-6.366,3.7567-7.7588,3.7567c-0.1953,0-0.3711-0.0244-0.5176-0.0732c-0.4883-0.1611-0.8545-0.5273-1.0107-1.0059
		c-0.2393-0.7471-2.5098-2.4463-4.3945-3.5107l0.0464-0.0824c-4.2444,2.0245-7.5519,3.4662-9.1821,3.7103
		c-2.3438,0.3516-5.2148,3.2324-5.5859,5.6006c-0.0391,0.2246-3.7354,22.5098-20.415,38.457
		c-12.7783,12.2168-16.377,28.7109-17.9102,35.752c-0.2148,0.9766-0.3857,1.7578-0.5322,2.2949
		c-1.5186,5.6348-32.1777,28.0078-50.8643,35.8398c-17.2803,7.2339-67.9126,28.9172-78.4924,33.4467
		c0.1239,8.1342,2.2571,44.2419,28.678,65.4608C44.5416,314.9914,82.8253,291.4507,118.5547,269.7466z"/>
	<path fill="#FFFFFF" d="M134.7949,70.2203c-0.9241,0.0659-1.7041,0.1178-2.3419,0.1483c-0.141,0.4578-0.2814,0.9326-0.3778,1.3263
		c1.9482-0.1904,5.7617-0.7471,6.3037-0.9033c0.1251-0.0708,0.5554-0.4346,1.0199-0.835
		C137.7026,70.0213,135.8954,70.144,134.7949,70.2203z"/>
	<polygon fill="#FFFFFF" points="134.082,299.3078 134.082,299.3078 134.1211,299.2486 	"/>
	<path d="M322.3291,103.0035l-9.8688-8.0908l3.4528-3.6914c0.7129-0.7617,0.7227-1.9434,0.0195-2.7148l-13.374-14.6973
		c-0.1807-0.1953-0.4004-0.3564-0.6396-0.4688l-44.5972-20.592l-0.7349-0.7996c-0.1318-0.1465-0.2881-0.2686-0.4541-0.3662
		l-61.377-36.4404c-0.791-0.4736-1.8164-0.3467-2.4512,0.3223l-49.3176,50.5292c-1.6534-0.1434-4.234-0.0452-8.4656,0.2374
		c-1.4258,0.0928-2.5977,0.21-3.0029,0.1562c-0.1953-0.0146-0.7959-0.1904-1.2354-0.3174c-2.002-0.5811-5.3418-1.5576-8.5156-0.1807
		c-4.4238,1.9238-8.2324,10.376-8.584,11.4355c-0.2539,0.7031-2.1777,3.3252-3.8867,5.4346
		c-4.502,3.2666-7.5195,12.2559-7.8467,14.6338c-0.2686,0.8301-2.3193,3.8135-12.9932,14.4922
		c-2.4805,2.3486-29.4971,11.0986-42.4805,15.3076c-5.0928,1.6455-9.2041,2.9785-11.2695,3.7109
		c-8.3594,2.9492-32.8418,12.4756-33.0908,12.5684l1.4551,3.7305c0.0208-0.0085,0.4352-0.1697,0.7855-0.3058
		c3.7408-1.4551,24.5929-9.5447,32.1783-12.2235c2.0508-0.7227,6.1279-2.041,11.1719-3.6768
		c26.665-8.6377,41.582-13.7891,44.0771-16.2793c11.3867-11.3916,13.8428-14.8193,14.1064-16.6602
		c0.2979-2.0996,3.1201-9.9756,6.3916-12.1533c0.166-0.1123,0.3174-0.2441,0.4395-0.4004c1.2451-1.5234,4.1992-5.249,4.7559-6.9092
		c0.5176-1.5674,3.8623-7.9395,6.3818-9.0332c1.8359-0.8105,4.1357-0.1318,5.8057,0.3516c0.3424,0.0989,0.5762,0.1208,0.8685,0.1959
		c-0.7184,2.3969-0.6647,3.4381,0.2448,3.8861c0.1709,0.0879,0.5078,0.1221,0.957,0.1221c2.373,0,7.8418-1.0303,7.8857-1.0449
		c0.1953-0.0623,0.8551-0.3552,3.3087-2.6056c-0.1825,1.4728-0.9161,3.8464-2.7814,5.2277l-1.1523,0.874
		c-3.3789,2.5977-7.9639,6.1572-13.4814,5.4688l-0.3412,2.7161l-60.6793,62.1619c-0.4199,0.4297-0.625,1.0303-0.5566,1.626
		l2.0471,17.5452c-7.3572,4.5624-49.1382,23.0695-61.781,28.6383c-2.1997,0.9692-3.6182,1.5912-3.7036,1.629l1.6016,3.6621
		c2.2491-0.9833,51.6479-22.6288,64.3878-29.5996l6.4465,55.2551c-25.1746,10.6787-67.7258,28.9136-68.2367,29.1345l1.5723,3.6719
		c0.0623-0.0262,0.8832-0.3772,2.0789-0.8893c10.5798-4.5294,61.2122-26.2128,78.4924-33.4467
		c18.6865-7.832,49.3457-30.2051,50.8643-35.8398c0.1465-0.5371,0.3174-1.3184,0.5322-2.2949
		c1.5332-7.041,5.1318-23.5352,17.9102-35.752c16.6797-15.9473,20.376-38.2324,20.415-38.457
		c0.3711-2.3682,3.2422-5.249,5.5859-5.6006c1.6302-0.2441,4.9377-1.6858,9.1821-3.7103l-0.0464,0.0824
		c1.8848,1.0645,4.1553,2.7637,4.3945,3.5107c0.1562,0.4785,0.5225,0.8447,1.0107,1.0059c0.1465,0.0488,0.3223,0.0732,0.5176,0.0732
		c1.3928,0,4.0314-1.3,7.7588-3.7567c-0.0592,0.6665-0.1593,1.3184-0.3516,1.8768c-1.3818,4.0527-10.1855,18.8916-14.5996,22.6953
		c-0.2393,0.2051-0.4297,0.4639-0.5469,0.7568c-0.2441,0.5957-5.8789,14.8096,5.9619,26.2988
		c11.7578,11.4062,30.8154,17.7197,35.2783,18.7842c0.6885,0.166,1.9385,0.498,3.5938,0.9424
		c26.9922,7.1777,39.7803,9.0723,44.1113,6.5479c0.1758-0.0977,0.3369-0.2246,0.4736-0.376l1.2714-1.3843
		c0.6781,2.5208,1.3226,6.6107-0.5682,9.5093c-3.252,4.9805-6.7236,6.0254-9.3799,6.377l-0.6543,0.0879
		c-21.001,2.8809-28.0762,1.5479-30.415,0.5078l-1.6309,3.6523c2.3535,1.0498,6.1475,1.5771,11.3477,1.5771
		c4.4324,0,9.9359-0.4004,16.391-1.1646c-0.0732,2.5024-0.1892,8.4369,0.2838,11.0083c0.2441,1.3037-0.5615,4.1797-1.9629,5.9277
		c-0.5957,0.7422-1.0498,0.9521-1.2061,0.957c-1.0693,0.0146-4.6973-0.0879-8.999-0.2246
		c-10.3076-0.332-17.7393-0.542-19.5215-0.1758l0.8203,3.916c1.2897-0.2582,9.7394-0.0244,16.1053,0.1788
		c0.6195,2.2449,0.9943,4.8755,0.8136,5.4657l-0.293,0.5664c-2.2363,4.3848-3.291,5.2441-3.7158,5.3613
		c-0.6543,0.1611-3.9844,0.2588-6.6602,0.3418c-9.6826,0.2881-14.3115,0.6006-16.1523,1.6895l2.0264,3.4521
		c0.8575-0.4535,4.1632-0.7227,7.6379-0.8972c0.6653,2.1136,1.0339,4.2944,0.7849,4.8376
		c-0.4199,0.5127-0.8691,1.1475-1.3379,1.8066c-0.8105,1.1572-2.1729,3.0908-2.9443,3.3154
		c-3.4277,0.9082-52.9102,8.7207-60.7178,5.9814c-10.3125-3.6377-16.8799-4.8486-19.4971-3.6426
		c-2.1338,0.9766-11.1279,6.3574-13.8477,8.8037c-0.8301,0.6689-8.7012,5.4492-17.8125,10.9863
		c-35.7294,21.7041-74.0131,45.2448-82.0264,53.302c-0.4956,0.4987-0.9015,0.9509-1.1572,1.3269l3.3008,2.2559
		c3.5742-5.2411,40.672-28.2806,67.5171-44.6729l16.4819,12.6025c0.3613,0.2783,0.791,0.415,1.2158,0.415
		c0.5273,0,1.0547-0.21,1.4453-0.6201l1.7639-1.842l0.4138,3.8684c0.0635,0.5908,0.3857,1.1182,0.8789,1.4502l4.624,3.0811
		l1.0693-1.6058l0.0391-0.0592l-0.0391,0.0592l-1.0596,1.6107l18.6084,12.2217c0.3369,0.2246,0.7178,0.332,1.0986,0.332
		c0.5371,0,1.0742-0.2197,1.4648-0.6396l53.5724-57.6257c12.2882-1.6626,22.818-3.4717,23.7665-3.7463
		c2.1338-0.6152,3.7158-2.8662,5.1123-4.8535c0.4102-0.5762,0.7959-1.1328,1.1621-1.5771c1.46-1.7798,0.9534-5.0507,0.2582-7.5427
		c0.8893-0.0299,1.7407-0.0568,2.4713-0.0793c4.2725-0.127,6.5479-0.2051,7.5391-0.4639c2.6562-0.6934,4.6338-4.1895,6.2793-7.4121
		l0.2686-0.5273c0.8832-1.6754,0.3607-4.8523-0.2026-7.1924c3.0835,0.0977,5.6879,0.1758,6.9946,0.1758
		c0.2441,0,0.4443,0,0.5957-0.0098c1.4941-0.0537,2.9395-0.8984,4.1797-2.4512c2.0361-2.5391,3.2568-6.5674,2.7783-9.1553
		c-0.3955-2.1558-0.2887-8.1763-0.2026-10.7843c0.2869-0.0385,0.542-0.0647,0.8325-0.1044l0.6396-0.0879
		c3.2324-0.4297,8.0127-1.7432,12.2021-8.1543c3.6322-5.5688,1.0406-13.2599,0.3387-15.0946l53.1281-57.8595
		c0.7422-0.8105,0.6934-2.0703-0.1172-2.8223L322.3291,103.0035z M309.7198,97.843l9.0222,7.3914l-67.066,69.848
		c-3.4766-0.7935-7.3596-1.7468-11.5533-2.8241L309.7198,97.843z M298.5223,76.1785l-80.9961,88.7085
		c-1.2347-0.5621-2.5061-1.1981-3.7915-1.8488l81.7981-88.2397L298.5223,76.1785z M205.8936,94.5464
		c-0.1086-0.1068-0.2551-0.1086-0.3687-0.2039l42.63-42.8436l4.433,2.6324l-44.5886,44.7101
		C207.5824,97.16,206.9513,95.5871,205.8936,94.5464z M138.3789,70.7916c-0.542,0.1562-4.3555,0.7129-6.3037,0.9033
		c0.0964-0.3937,0.2368-0.8685,0.3778-1.3263c0.6378-0.0305,1.4178-0.0824,2.3419-0.1483c1.1005-0.0763,2.9077-0.199,4.6039-0.2637
		C138.9343,70.357,138.504,70.7208,138.3789,70.7916z M133.3594,187.2173c-1.1835,3.0316-20.4669,18.302-38.103,28.0652
		l41.7377-41.8506c-1.6742,4.9353-2.6025,9.1443-3.1659,11.72C133.6328,186.0504,133.4814,186.7632,133.3594,187.2173z
		 M139.1205,167.8961l-50.8649,51.0034c-1.1731,0.5542-2.3309,1.0791-3.4558,1.5503c-1.8909,0.7922-4.2737,1.7969-6.8695,2.8943
		l76.684-77.8784c-0.5969,0.6262-1.0925,1.2897-1.7285,1.8982C146.286,153.6736,141.9952,161.1138,139.1205,167.8961z
		 M181.0547,102.2418c-4.043,0.6104-8.3057,4.8682-8.9453,8.9307c-0.0201,0.144-1.77,10.0452-7.8473,21.0797l-88.2416,89.6161
		l-8.501-72.8442l61.6986-63.2031c4.8822-0.8966,8.8666-3.8977,11.7096-6.0791l1.1035-0.835
		c2.7051-2.0068,4.0527-5.332,4.4141-7.7783c0.1654-1.1383,0.0684-2.0276-0.1501-2.7991l47.7722-48.9441l51.9623,30.8521
		l-42.7246,42.9394c-0.8893-0.1685-1.8365-0.1074-2.8168,0.2466c-0.8057,0.2881-2.583,1.1621-5.6641,2.6758
		C190.3809,98.2916,182.9395,101.9586,181.0547,102.2418z M193.3026,101.2963c1.0767-0.5243,2.1289-1.0339,3.2941-1.6083
		c2.373-1.1719,4.6143-2.2754,5.249-2.5049c0.625-0.2344,0.9229-0.0977,1.2451,0.2148c0.6244,0.6152,1.048,1.8335,1.2665,3.1873
		c-2.8772,1.9434-5.9399,3.7665-7.1844,4.1272C196.3995,103.4283,194.6381,102.149,193.3026,101.2963z M192.5244,130.6451
		c5.0879-4.7607,13.8525-19.6094,15.376-24.0674c0.4651-1.3544,0.5878-3.0469,0.5225-4.7583l46.0883-46.214l10.4108,11.319
		l-72.8339,75.6781C190.6488,136.9744,192.0282,132.0715,192.5244,130.6451z M193.7042,146.69l75.4022-78.3496
		c0.7324-0.7617,0.7471-1.9629,0.0342-2.7393l-4.7748-5.1923l28.8776,13.3325l-81.7212,88.1561
		c-4.8859-2.6428-9.834-5.885-13.8074-9.7388C195.8868,150.3845,194.6576,148.5339,193.7042,146.69z M231.1377,169.9273
		c-1.6888-0.4047-6.0492-1.8036-11.2836-4.0332l80.6818-88.3636l11.1975,12.3041l-76.0205,81.2823
		c-0.3058-0.0806-0.5701-0.1453-0.8789-0.2277C233.1299,170.4351,231.8457,170.0933,231.1377,169.9273z M275.6787,177.9644
		c-2.3871,1.0626-9.5923,0.2692-21.2598-2.2778l66.134-68.8776l11.0583,10.2374L275.6787,177.9644z M201.5594,256.0076
		l-49.1425,52.865l-15.8691-10.4218l38.7506-40.3625C182.0288,258.1359,191.8896,257.2057,201.5594,256.0076z M172.0966,257.9632
		l-37.5812,39.1449l-3.1287-2.0831l-0.6744-6.2878l31.8457-33.2581c1.7151,0.5103,3.5992,1.1066,5.8258,1.8896
		C169.2462,257.6739,170.5743,257.8472,172.0966,257.9632z M120.6348,273.1646c13.2764-8.0713,17.6318-10.7324,18.3789-11.4014
		c2.2217-2.002,10.8008-7.2217,12.8711-8.1738c0.4498-0.1978,2.2943-0.2307,6.2781,0.697l-34.4812,36.012l-13.8324-10.5743
		C113.7793,277.329,117.4304,275.111,120.6348,273.1646z"/>
</g>
</svg>
